<?xml version="1.0" encoding="utf-8"?>
<svg xml:space="preserve" viewBox="0 0 100 100" y="0" x="0" xmlns="http://www.w3.org/2000/svg" id="圖層_1" version="1.1" style="height: 100%; width: 100%; background: none; shape-rendering: auto;" width="200px" height="200px"><g class="ldl-scale" style="transform-origin: 50% 50%; transform: rotate(0deg) scale(0.8, 0.8);"><g class="ldl-ani"><g class="ldl-layer"><g class="ldl-ani" style="transform-origin: 50px 50px; transform: matrix(1, 0, 0, 1, 0, 0); animation: 5s linear -2.91667s infinite normal forwards running tremble-438198c2-51b9-4a71-82d8-baa0e4dc64c4;"><path d="M32.3 57.4L90 54.5V22.7H25z" fill="#f5e169" style="fill: rgb(245, 225, 105);"></path></g></g><g class="ldl-layer"><g class="ldl-ani" style="transform-origin: 50px 50px; transform: matrix(1, 0, 0, 1, 0, 0); animation: 5s linear -3.33333s infinite normal forwards running tremble-438198c2-51b9-4a71-82d8-baa0e4dc64c4;"><path fill="#333" d="M92.5 54.5V22.7c0-1.4-1.1-2.5-2.5-2.5H27l-1.1-5c-.1-.7-.5-1.2-1.1-1.6-.6-.4-1.2-.5-1.9-.3L9.5 16.2c-.7.1-1.2.5-1.6 1.1-.4.6-.5 1.2-.3 1.9s.5 1.2 1.1 1.6c.6.4 1.2.5 1.9.3l11.1-2.4.9 4.1c0 .3.1.6.2.8L31 62.7l-2.8 5.2c-.4.8-.4 1.7.1 2.5.4.7 1.3 1.2 2.1 1.2h53.9c1.4 0 2.5-1.1 2.5-2.5s-1.1-2.5-2.5-2.5H34.5l1.2-2.3c.3-.5.4-1.1.2-1.7l-.6-2.8L90.1 57c1.4-.1 2.4-1.2 2.4-2.5zm-5-2.4H87l-52.7 2.7-6.2-29.6h59.4v26.9z" style="fill: rgb(51, 51, 51);"></path></g></g><g class="ldl-layer"><g class="ldl-ani"><g><g class="ldl-layer"><g class="ldl-ani" style="transform-origin: 50px 50px; transform: matrix(1, 0, 0, 1, 0, 0); animation: 5s linear -3.75s infinite normal forwards running tremble-438198c2-51b9-4a71-82d8-baa0e4dc64c4;"><circle fill="#e0e0e0" r="6.6" cy="78.2" cx="33.2" style="fill: rgb(255, 255, 255);"></circle></g></g><g class="ldl-layer"><g class="ldl-ani" style="transform-origin: 50px 50px; transform: matrix(1, 0, 0, 1, 0, 0); animation: 5s linear -4.16667s infinite normal forwards running tremble-438198c2-51b9-4a71-82d8-baa0e4dc64c4;"><path fill="#333" d="M33.2 86.8c-4.7 0-8.6-3.9-8.6-8.6s3.9-8.6 8.6-8.6 8.6 3.9 8.6 8.6-3.9 8.6-8.6 8.6zm0-13.2c-2.5 0-4.6 2.1-4.6 4.6 0 2.5 2.1 4.6 4.6 4.6 2.5 0 4.6-2.1 4.6-4.6 0-2.6-2.1-4.6-4.6-4.6z" style="fill: rgb(51, 51, 51);"></path></g></g></g></g></g><g class="ldl-layer"><g class="ldl-ani"><g><g class="ldl-layer"><g class="ldl-ani" style="transform-origin: 50px 50px; transform: matrix(1, 0, 0, 1, 0, 0); animation: 5s linear -4.58333s infinite normal forwards running tremble-438198c2-51b9-4a71-82d8-baa0e4dc64c4;"><circle fill="#e0e0e0" r="6.6" cy="78.2" cx="79.3" style="fill: rgb(255, 255, 255);"></circle></g></g><g class="ldl-layer"><g class="ldl-ani" style="transform-origin: 50px 50px; transform: matrix(1, 0, 0, 1, 0, 0); animation: 5s linear -5s infinite normal forwards running tremble-438198c2-51b9-4a71-82d8-baa0e4dc64c4;"><path fill="#333" d="M79.3 86.8c-4.7 0-8.6-3.9-8.6-8.6s3.9-8.6 8.6-8.6 8.6 3.9 8.6 8.6-3.9 8.6-8.6 8.6zm0-13.2c-2.5 0-4.6 2.1-4.6 4.6 0 2.5 2.1 4.6 4.6 4.6 2.5 0 4.6-2.1 4.6-4.6 0-2.6-2.1-4.6-4.6-4.6z" style="fill: rgb(51, 51, 51);"></path></g></g></g></g></g><metadata xmlns:d="https://loading.io/stock/">
<d:name>cart</d:name>
<d:tags>shopping,buy,purchase,payment,checkout,cart,web application</d:tags>
<d:license>by</d:license>
<d:slug>ng7qif</d:slug>
</metadata></g></g><style id="tremble-438198c2-51b9-4a71-82d8-baa0e4dc64c4" data-anikit="">@keyframes tremble-438198c2-51b9-4a71-82d8-baa0e4dc64c4 {
  0% { transform: translate(0px,0px) rotate(0deg) scale(1) }
  3.33333% { transform: translate(-0.18923px,1.45485px) rotate(0deg) scale(1) }
  6.66667% { transform: translate(-0.84296px,-1.32524px) rotate(0deg) scale(1) }
  10% { transform: translate(0.67971px,1.00422px) rotate(0deg) scale(1) }
  13.33333% { transform: translate(-0.5056px,0.83616px) rotate(0deg) scale(1) }
  16.66667% { transform: translate(1.31368px,-0.51401px) rotate(0deg) scale(1) }
  20% { transform: translate(-1.21184px,1.49193px) rotate(0deg) scale(1) }
  23.33333% { transform: translate(1.09065px,-0.21259px) rotate(0deg) scale(1) }
  26.66667% { transform: translate(-1.49916px,0.56159px) rotate(0deg) scale(1) }
  30% { transform: translate(1.48086px,1.21228px) rotate(0deg) scale(1) }
  33.33333% { transform: translate(-1.43889px,-1.152px) rotate(0deg) scale(1) }
  36.66667% { transform: translate(1.35914px,1.34835px) rotate(0deg) scale(1) }
  40% { transform: translate(-1.42834px,0.3091px) rotate(0deg) scale(1) }
  43.33333% { transform: translate(1.47472px,-1.49889px) rotate(0deg) scale(1) }
  46.66667% { transform: translate(-0.92402px,1.4416px) rotate(0deg) scale(1) }
  50% { transform: translate(1.0657px,-0.75306px) rotate(0deg) scale(1) }
  53.33333% { transform: translate(-1.19035px,-1.07484px) rotate(0deg) scale(1) }
  56.66667% { transform: translate(0.28828px,0.79337px) rotate(0deg) scale(1) }
  60% { transform: translate(-0.47167px,-1.42789px) rotate(0deg) scale(1) }
  63.33333% { transform: translate(0.64753px,-0.09795px) rotate(0deg) scale(1) }
  66.66667% { transform: translate(0.41006px,-0.26292px) rotate(0deg) scale(1) }
  70% { transform: translate(-0.22477px,-1.3683px) rotate(0deg) scale(1) }
  73.33333% { transform: translate(0.03588px,0.92931px) rotate(0deg) scale(1) }
  76.66667% { transform: translate(-1.01937px,-1.18398px) rotate(0deg) scale(1) }
  80% { transform: translate(0.8724px,-0.60494px) rotate(0deg) scale(1) }
  83.33333% { transform: translate(-0.71151px,1.4786px) rotate(0deg) scale(1) }
  86.66667% { transform: translate(1.40734px,-1.49607px) rotate(0deg) scale(1) }
  90% { transform: translate(-1.33062px,0.46957px) rotate(0deg) scale(1) }
  93.33333% { transform: translate(1.23264px,1.26738px) rotate(0deg) scale(1) }
  96.66667% { transform: translate(-1.48975px,-1.03867px) rotate(0deg) scale(1) }
  100% { transform: translate(0,0) rotate(0) scale(1) }
}</style><!-- [ldio] generated by https://loading.io/ --></svg>